#!OML:ASF H:\Punching\Project 1\Capture day 1\Session 1\female.ASF
:FULLY-SPECIFIED
:DEGREES
1905
root -2.3533 15.92 1.18839 -349.849 9.25895 -363.116
lowerback -5.89542 -2.10075 4.56867
upperback -6.73034 -2.8594 2.49622
thorax -3.77356 -1.55884 -0.0377757
lowerneck -14.905 5.61426 10.4565
upperneck 37.4491 8.19158 -7.38431
head 16.8738 3.9474 -3.59137
rclavicle -4.11981e-014 3.10104e-014
rhumerus -41.8737 -16.0668 -63.0709
rradius 23.7259
rwrist 14.0048
rhand -10.4554 -7.71197
rfingers 7.12502
rthumb 15.5451 -37.1072
lclavicle -4.11981e-014 3.10104e-014
lhumerus -44.6243 6.7489 78.2147
lradius 36.7037
lwrist -18.4232
lhand -5.50502 11.3802
lfingers 7.12502
lthumb 20.3081 40.3384
rfemur -21.2088 -0.275161 27.3717
rtibia 20.2429
rfoot -10.5958 -7.82231
rtoes 5.37369
lfemur -11.7061 -0.534853 -17.5392
ltibia 53.393
lfoot 6.78725 5.32883
ltoes 2.16864
1906
root -2.36283 15.9241 1.27656 -349.952 9.36813 -363.368
lowerback -5.77854 -2.0394 4.86763
upperback -6.6759 -2.78069 2.49678
thorax -3.79607 -1.53163 -0.197716
lowerneck -14.978 5.56275 10.3847
upperneck 37.3945 8.11671 -7.36357
head 16.8459 3.9068 -3.58062
rclavicle -2.65874e-014 3.22031e-014
rhumerus -41.428 -15.6779 -63.5237
rradius 23.891
rwrist 13.6422
rhand -10.6231 -7.67745
rfingers 7.12502
rthumb 15.3835 -37.0851
lclavicle -2.65874e-014 3.22031e-014
lhumerus -44.4265 6.7587 78.2606
lradius 36.9635
lwrist -18.1782
lhand -5.68459 11.4516
lfingers 7.12502
lthumb 20.1355 40.4281
rfemur -20.4684 -0.420778 27.7672
rtibia 19.6407
rfoot -10.5365 -7.75008
rtoes 5.70066
lfemur -13.2246 -0.304416 -17.2041
ltibia 55.6676
lfoot 6.65305 5.89575
ltoes 2.39562
1907
root -2.37201 15.9248 1.36337 -350.056 9.46948 -363.579
lowerback -5.65801 -1.97818 5.11058
upperback -6.61332 -2.70044 2.48832
thorax -3.80857 -1.50122 -0.336331
lowerneck -15.0531 5.50722 10.3109
upperneck 37.3401 8.03216 -7.33307
head 16.8167 3.86317 -3.56695
rclavicle 5.01931e-015 2.10712e-014
rhumerus -40.9633 -15.2783 -63.9735
rradius 24.0373
rwrist 13.3195
rhand -10.8318 -7.64142
rfingers 7.12502
rthumb 15.1825 -37.0644
lclavicle 5.01931e-015 2.10712e-014
lhumerus -44.2259 6.75931 78.3298
lradius 37.2302
lwrist -17.9488
lhand -5.86596 11.4918
lfingers 7.12502
lthumb 19.9612 40.4865
rfemur -19.7817 -0.539806 28.1108
rtibia 19.1486
rfoot -10.5199 -7.72686
rtoes 5.97964
lfemur -14.713 -0.103237 -16.9449
ltibia 57.7496
lfoot 6.13348 6.47775
ltoes 2.53016
1908
root -2.38082 15.9243 1.44958 -350.158 9.56279 -363.74
lowerback -5.53654 -1.91693 5.29018
upperback -6.54715 -2.61846 2.46773
thorax -3.81412 -1.46737 -0.452764
lowerneck -15.1216 5.44479 10.2339
upperneck 37.2886 7.93382 -7.28992
head 16.7847 3.81531 -3.54988
rclavicle 3.8266e-015 -1.07344e-014
rhumerus -40.4897 -14.9007 -64.3928
rradius 24.1628
rwrist 13.106
rhand -10.9889 -7.64167
rfingers 7.12502
rthumb 15.0312 -37.076
lclavicle 3.8266e-015 -1.07344e-014
lhumerus -44.0269 6.74299 78.4223
lradius 37.4942
lwrist -17.7346
lhand -6.05309 11.4889
lfingers 7.12502
lthumb 19.7813 40.5023
rfemur -19.1425 -0.628533 28.3927
rtibia 18.7605
rfoot -10.5558 -7.75829
rtoes 6.24623
lfemur -16.163 0.0560555 -16.7694
ltibia 59.6103
lfoot 5.35979 7.06091
ltoes 2.69095
1909
root -2.3894 15.9228 1.53536 -350.251 9.63526 -363.852
lowerback -5.42501 -1.85179 5.4071
upperback -6.48049 -2.53047 2.43592
thorax -3.80982 -1.42795 -0.546713
lowerneck -15.1801 5.37446 10.1517
upperneck 37.2436 7.82079 -7.23224
head 16.7507 3.7629 -3.52858
rclavicle -3.19546e-014 -8.34896e-015
rhumerus -40.0005 -14.548 -64.788
rradius 24.2614
rwrist 12.9914
rhand -11.1317 -7.69077
rfingers 7.12502
rthumb 14.8936 -37.1354
lclavicle -3.19546e-014 -8.34896e-015
lhumerus -43.8347 6.71179 78.5332
lradius 37.7539
lwrist -17.5447
lhand -6.22559 11.4613
lfingers 7.12502
lthumb 19.6155 40.4917
rfemur -18.5668 -0.680452 28.6153
rtibia 18.4969
rfoot -10.6492 -7.83297
rtoes 6.48909
lfemur -17.5773 0.17562 -16.6732
ltibia 61.2412
lfoot 4.437 7.64022
ltoes 2.8788
1910
root -2.3977 15.9206 1.62108 -350.332 9.69425 -363.915
lowerback -5.32163 -1.78512 5.45979
upperback -6.41703 -2.43947 2.39268
thorax -3.8008 -1.38457 -0.617369
lowerneck -15.2225 5.29979 10.0726
upperneck 37.2032 7.69951 -7.16767
head 16.7142 3.70893 -3.50673
rclavicle 3.17559e-014 5.1684e-015
rhumerus -39.5067 -14.2281 -65.1486
rradius 24.3336
rwrist 12.9825
rhand -11.2466 -7.77647
rfingers 7.12502
rthumb 14.783 -37.2292
lclavicle 3.17559e-014 5.1684e-015
lhumerus -43.6635 6.66726 78.6603
lradius 38.0281
lwrist -17.3694
lhand -6.36998 11.4092
lfingers 7.12502
lthumb 19.4767 40.4537
rfemur -18.0463 -0.696904 28.778
rtibia 18.3354
rfoot -10.7863 -7.95576
rtoes 6.69518
lfemur -18.9533 0.240776 -16.6549
ltibia 62.6325
lfoot 3.42699 8.21876
ltoes 2.88613
1911
root -2.40553 15.9176 1.70714 -350.399 9.74035 -363.932
lowerback -5.23351 -1.71624 5.45858
upperback -6.35721 -2.34547 2.33699
thorax -3.78432 -1.33768 -0.671669
lowerneck -15.2502 5.22078 9.99569
upperneck 37.1697 7.56971 -7.09499
head 16.6765 3.65332 -3.48373
rclavicle 6.16232e-015 -3.61788e-014
rhumerus -39.0117 -13.9506 -65.4727
rradius 24.3724
rwrist 13.0821
rhand -11.336 -7.85458
rfingers 7.12502
rthumb 14.6968 -37.3137
lclavicle 6.16232e-015 -3.61788e-014
lhumerus -43.5151 6.60225 78.8021
lradius 38.3126
lwrist -17.2015
lhand -6.48652 11.34
lfingers 7.12502
lthumb 19.3646 40.3958
rfemur -17.5769 -0.684197 28.8864
rtibia 18.268
rfoot -10.9664 -8.11245
rtoes 6.8525
lfemur -20.2876 0.250134 -16.7069
ltibia 63.7854
lfoot 2.3396 8.78624
ltoes 2.65223
1912
root -2.41263 15.9139 1.79326 -350.449 9.77572 -363.922
lowerback -5.16347 -1.64541 5.42624
upperback -6.30176 -2.24944 2.27551
thorax -3.76074 -1.28857 -0.715336
lowerneck -15.267 5.14364 9.92501
upperneck 37.1421 7.44273 -7.02266
head 16.6404 3.60008 -3.4618
rclavicle -1.59276e-014 9.14409e-015
rhumerus -38.514 -13.693 -65.7771
rradius 24.3897
rwrist 13.2357
rhand -11.4318 -7.94347
rfingers 7.12502
rthumb 14.6045 -37.4093
lclavicle -1.59276e-014 9.14409e-015
lhumerus -43.3842 6.53494 78.9534
lradius 38.6097
lwrist -17.0537
lhand -6.55704 11.2854
lfingers 7.12502
lthumb 19.2968 40.348
rfemur -17.1634 -0.648223 28.9603
rtibia 18.2846
rfoot -11.1806 -8.29294
rtoes 7.00718
lfemur -21.5909 0.20939 -16.8068
ltibia 64.7097
lfoot 1.16969 9.32597
ltoes 2.18429
